<svg width="25" height="25" viewBox="0 0 25 25" fill="none" xmlns="http://www.w3.org/2000/svg">
<g id="Component">
<path id="Vector" d="M16.5 18.5C17.0304 18.5 17.5391 18.7107 17.9142 19.0858C18.2893 19.4609 18.5 19.9696 18.5 20.5C18.5 21.0304 18.2893 21.5391 17.9142 21.9142C17.5391 22.2893 17.0304 22.5 16.5 22.5C15.9696 22.5 15.4609 22.2893 15.0858 21.9142C14.7107 21.5391 14.5 21.0304 14.5 20.5C14.5 19.9696 14.7107 19.4609 15.0858 19.0858C15.4609 18.7107 15.9696 18.5 16.5 18.5ZM16.5 19.5C16.2348 19.5 15.9804 19.6054 15.7929 19.7929C15.6054 19.9804 15.5 20.2348 15.5 20.5C15.5 20.7652 15.6054 21.0196 15.7929 21.2071C15.9804 21.3946 16.2348 21.5 16.5 21.5C16.7652 21.5 17.0196 21.3946 17.2071 21.2071C17.3946 21.0196 17.5 20.7652 17.5 20.5C17.5 20.2348 17.3946 19.9804 17.2071 19.7929C17.0196 19.6054 16.7652 19.5 16.5 19.5ZM7.5 18.5C8.03043 18.5 8.53914 18.7107 8.91421 19.0858C9.28929 19.4609 9.5 19.9696 9.5 20.5C9.5 21.0304 9.28929 21.5391 8.91421 21.9142C8.53914 22.2893 8.03043 22.5 7.5 22.5C6.96957 22.5 6.46086 22.2893 6.08579 21.9142C5.71071 21.5391 5.5 21.0304 5.5 20.5C5.5 19.9696 5.71071 19.4609 6.08579 19.0858C6.46086 18.7107 6.96957 18.5 7.5 18.5ZM7.5 19.5C7.23478 19.5 6.98043 19.6054 6.79289 19.7929C6.60536 19.9804 6.5 20.2348 6.5 20.5C6.5 20.7652 6.60536 21.0196 6.79289 21.2071C6.98043 21.3946 7.23478 21.5 7.5 21.5C7.76522 21.5 8.01957 21.3946 8.20711 21.2071C8.39464 21.0196 8.5 20.7652 8.5 20.5C8.5 20.2348 8.39464 19.9804 8.20711 19.7929C8.01957 19.6054 7.76522 19.5 7.5 19.5ZM18.5 6.5H4.77L7.32 12.5H15.5C15.83 12.5 16.12 12.34 16.3 12.1L19.3 8.1C19.43 7.93 19.5 7.72 19.5 7.5C19.5 7.23478 19.3946 6.98043 19.2071 6.79289C19.0196 6.60536 18.7652 6.5 18.5 6.5ZM15.5 13.5H7.37L6.6 15.06L6.5 15.5C6.5 15.7652 6.60536 16.0196 6.79289 16.2071C6.98043 16.3946 7.23478 16.5 7.5 16.5H18.5V17.5H7.5C6.96957 17.5 6.46086 17.2893 6.08579 16.9142C5.71071 16.5391 5.5 16.0304 5.5 15.5C5.4997 15.1607 5.58573 14.8269 5.75 14.53L6.47 13.06L2.84 4.5H1.5V3.5H3.5L4.35 5.5H18.5C19.0304 5.5 19.5391 5.71071 19.9142 6.08579C20.2893 6.46086 20.5 6.96957 20.5 7.5C20.5 8 20.33 8.42 20.05 8.76L17.14 12.65C16.78 13.16 16.18 13.5 15.5 13.5Z" fill="black"/>
</g>
</svg>
