<svg width="49" height="49" viewBox="0 0 49 49" fill="none" xmlns="http://www.w3.org/2000/svg">
<path d="M39.7819 41.1478L26.9969 28.3628C25.9761 29.2326 24.8022 29.9057 23.4751 30.382C22.148 30.8584 20.8141 31.0966 19.4734 31.0966C16.204 31.0966 13.4369 29.9649 11.172 27.7013C8.9071 25.4378 7.77466 22.6714 7.77466 19.402C7.77466 16.1326 8.90574 13.3648 11.1679 11.0985C13.4301 8.83225 16.1959 7.69776 19.4652 7.69504C22.7346 7.69232 25.5031 8.82477 27.7707 11.0924C30.0384 13.36 31.1722 16.1278 31.1722 19.3958C31.1722 20.8141 30.921 22.1868 30.4188 23.5139C29.9165 24.841 29.2564 25.9761 28.4384 26.9194L41.2233 39.7023L39.7819 41.1478ZM19.4754 29.0529C22.1841 29.0529 24.4707 28.1206 26.3354 26.2558C28.2002 24.3911 29.1325 22.1038 29.1325 19.3938C29.1325 16.6838 28.2002 14.3972 26.3354 12.5338C24.4707 10.6704 22.1841 9.73807 19.4754 9.73671C16.7668 9.73535 14.4795 10.6677 12.6134 12.5338C10.7473 14.3999 9.81496 16.6865 9.81632 19.3938C9.81769 22.101 10.75 24.3877 12.6134 26.2538C14.4768 28.1199 16.7634 29.0522 19.4734 29.0509" fill="black"/>
</svg>
